<mxfile host="app.diagrams.net" modified="2021-07-30T10:29:02.667Z" agent="5.0 (Windows NT 10.0; Win64; x64) AppleWebKit/537.36 (KHTML, like Gecko) Chrome/92.0.4515.107 Safari/537.36" etag="iSrdRZgsJgacGG5RneL-" version="14.9.2" type="github">
  <diagram id="C8p4iAtM8GGWha-tj51h" name="Page-1">
    <mxGraphModel dx="1182" dy="675" grid="1" gridSize="10" guides="1" tooltips="1" connect="1" arrows="1" fold="1" page="1" pageScale="1" pageWidth="827" pageHeight="1169" math="0" shadow="0">
      <root>
        <mxCell id="0" />
        <mxCell id="1" parent="0" />
        <mxCell id="2DGbnVA0Atu70BHCa5EY-1" value="48" style="rounded=1;whiteSpace=wrap;html=1;arcSize=50;fillColor=#fff2cc;strokeColor=#d6b656;" vertex="1" parent="1">
          <mxGeometry x="130" y="110" width="70" height="40" as="geometry" />
        </mxCell>
        <mxCell id="2DGbnVA0Atu70BHCa5EY-2" value="11" style="rounded=1;whiteSpace=wrap;html=1;arcSize=50;fillColor=#f8cecc;strokeColor=#b85450;" vertex="1" parent="1">
          <mxGeometry x="230" y="110" width="70" height="40" as="geometry" />
        </mxCell>
        <mxCell id="2DGbnVA0Atu70BHCa5EY-3" value="10" style="rounded=1;whiteSpace=wrap;html=1;arcSize=50;fillColor=#d5e8d4;strokeColor=#82b366;" vertex="1" parent="1">
          <mxGeometry x="330" y="110" width="70" height="40" as="geometry" />
        </mxCell>
        <mxCell id="2DGbnVA0Atu70BHCa5EY-4" value="31" style="rounded=1;whiteSpace=wrap;html=1;arcSize=45;fillColor=#e1d5e7;strokeColor=#9673a6;" vertex="1" parent="1">
          <mxGeometry x="430" y="110" width="70" height="40" as="geometry" />
        </mxCell>
        <mxCell id="2DGbnVA0Atu70BHCa5EY-5" value="59" style="rounded=1;whiteSpace=wrap;html=1;arcSize=50;fillColor=#f8cecc;strokeColor=#b85450;" vertex="1" parent="1">
          <mxGeometry x="180" y="200" width="70" height="40" as="geometry" />
        </mxCell>
        <mxCell id="2DGbnVA0Atu70BHCa5EY-6" value="69" style="rounded=1;whiteSpace=wrap;html=1;arcSize=45;fillColor=#d5e8d4;strokeColor=#82b366;" vertex="1" parent="1">
          <mxGeometry x="280" y="260" width="70" height="40" as="geometry" />
        </mxCell>
        <mxCell id="2DGbnVA0Atu70BHCa5EY-7" value="100" style="rounded=1;whiteSpace=wrap;html=1;arcSize=50;fillColor=#e1d5e7;strokeColor=#9673a6;" vertex="1" parent="1">
          <mxGeometry x="379" y="330" width="70" height="40" as="geometry" />
        </mxCell>
        <mxCell id="2DGbnVA0Atu70BHCa5EY-11" value="" style="endArrow=classic;html=1;entryX=0.25;entryY=0;entryDx=0;entryDy=0;" edge="1" parent="1" target="2DGbnVA0Atu70BHCa5EY-5">
          <mxGeometry width="50" height="50" relative="1" as="geometry">
            <mxPoint x="170" y="150" as="sourcePoint" />
            <mxPoint x="210" y="200" as="targetPoint" />
          </mxGeometry>
        </mxCell>
        <mxCell id="2DGbnVA0Atu70BHCa5EY-12" value="" style="endArrow=classic;html=1;exitX=0.5;exitY=1;exitDx=0;exitDy=0;entryX=0.75;entryY=0;entryDx=0;entryDy=0;" edge="1" parent="1" source="2DGbnVA0Atu70BHCa5EY-2" target="2DGbnVA0Atu70BHCa5EY-5">
          <mxGeometry width="50" height="50" relative="1" as="geometry">
            <mxPoint x="390" y="370" as="sourcePoint" />
            <mxPoint x="440" y="320" as="targetPoint" />
          </mxGeometry>
        </mxCell>
        <mxCell id="2DGbnVA0Atu70BHCa5EY-13" value="" style="endArrow=classic;html=1;exitX=1;exitY=0.5;exitDx=0;exitDy=0;" edge="1" parent="1" source="2DGbnVA0Atu70BHCa5EY-5" target="2DGbnVA0Atu70BHCa5EY-6">
          <mxGeometry width="50" height="50" relative="1" as="geometry">
            <mxPoint x="390" y="370" as="sourcePoint" />
            <mxPoint x="440" y="320" as="targetPoint" />
          </mxGeometry>
        </mxCell>
        <mxCell id="2DGbnVA0Atu70BHCa5EY-14" value="" style="endArrow=classic;html=1;exitX=0.5;exitY=1;exitDx=0;exitDy=0;entryX=0.75;entryY=0;entryDx=0;entryDy=0;" edge="1" parent="1" source="2DGbnVA0Atu70BHCa5EY-3" target="2DGbnVA0Atu70BHCa5EY-6">
          <mxGeometry width="50" height="50" relative="1" as="geometry">
            <mxPoint x="390" y="370" as="sourcePoint" />
            <mxPoint x="440" y="320" as="targetPoint" />
          </mxGeometry>
        </mxCell>
        <mxCell id="2DGbnVA0Atu70BHCa5EY-15" value="" style="endArrow=classic;html=1;exitX=1;exitY=0.5;exitDx=0;exitDy=0;entryX=0.25;entryY=0;entryDx=0;entryDy=0;" edge="1" parent="1" source="2DGbnVA0Atu70BHCa5EY-6" target="2DGbnVA0Atu70BHCa5EY-7">
          <mxGeometry width="50" height="50" relative="1" as="geometry">
            <mxPoint x="390" y="370" as="sourcePoint" />
            <mxPoint x="440" y="320" as="targetPoint" />
          </mxGeometry>
        </mxCell>
        <mxCell id="2DGbnVA0Atu70BHCa5EY-16" value="" style="endArrow=classic;html=1;exitX=0.5;exitY=1;exitDx=0;exitDy=0;entryX=0.75;entryY=0;entryDx=0;entryDy=0;" edge="1" parent="1" source="2DGbnVA0Atu70BHCa5EY-4" target="2DGbnVA0Atu70BHCa5EY-7">
          <mxGeometry width="50" height="50" relative="1" as="geometry">
            <mxPoint x="390" y="370" as="sourcePoint" />
            <mxPoint x="440" y="320" as="targetPoint" />
          </mxGeometry>
        </mxCell>
        <mxCell id="2DGbnVA0Atu70BHCa5EY-18" value="Lambda - reduce" style="text;html=1;strokeColor=none;fillColor=none;align=center;verticalAlign=middle;whiteSpace=wrap;rounded=0;fontSize=24;fontStyle=1" vertex="1" parent="1">
          <mxGeometry x="200" y="60" width="240" height="20" as="geometry" />
        </mxCell>
      </root>
    </mxGraphModel>
  </diagram>
</mxfile>
